<svg xmlns="http://www.w3.org/2000/svg" xmlns:xlink="http://www.w3.org/1999/xlink" id="svg6" width="1440" height="1440" version="1.1"><defs id="defs2"><linearGradient id="Unbenannter_Verlauf_8" x1="-1495.17" x2="-1495.17" y1="5662.0498" y2="6156.8101" gradientTransform="rotate(-90 -3037.5 2156.43)" gradientUnits="userSpaceOnUse"><stop id="stop1" offset="0" stop-color="#4601d2"/><stop id="stop2" offset="1" stop-color="#b627f4"/></linearGradient><linearGradient xlink:href="#Unbenannter_Verlauf_8" id="Unbenannter_Verlauf_8-3" x1="-1624.0699" x2="-1624.0699" y1="5662.0498" y2="6156.8101" gradientTransform="translate(2261.96 -5088.83)"/><linearGradient xlink:href="#Unbenannter_Verlauf_8" id="linearGradient8" x1="-1495.17" x2="-1495.17" y1="5662.0498" y2="6156.8101" gradientTransform="rotate(-90 -3037.5 2156.43)" gradientUnits="userSpaceOnUse"/><linearGradient xlink:href="#Unbenannter_Verlauf_8" id="linearGradient9" x1="-1495.17" x2="-1495.17" y1="5662.0498" y2="6156.8101" gradientTransform="rotate(-90 -3037.5 2156.43)" gradientUnits="userSpaceOnUse"/><style id="style1">.cls-2{fill:url(#Unbenannter_Verlauf_8)}.cls-4{fill:#fff}</style></defs><g id="Ebene_2" data-name="Ebene 2" transform="translate(0 -16.887024)"><path id="rect2" d="M0 16.887024h1440v1440H0z" style="display:inline;stroke-width:1;fill:#0a0029"/><g id="API" transform="translate(-308.38551 -315.58186) scale(1.4618131)"><path id="rect4" d="M593.78998 698.88h88.220001v88.220001H593.78998z" style="fill:url(#Unbenannter_Verlauf_8-3)" transform="rotate(-90 637.9 742.99)"/><path id="path3" d="M939.89 614.05c0 94.76-77.07 172.38-171.81 173l-15.94.11v-76.84l15.68-.15c52.47-.5 95.16-43.62 95.16-96.12a96.25 96.25 0 0 0-96.14-96.14c-52.5 0-95.61 42.69-96.12 95.16l-.15 15.69H593.7l.11-16c.65-94.73 78.27-171.81 173-171.81 95.45.05 173.08 77.68 173.08 173.1z" class="cls-2" style="fill:url(#linearGradient8)"/><path id="rect3" d="M467.10999 441.60999h76.910004v344.97H467.10999z" class="cls-2" style="fill:url(#linearGradient9)"/><path id="path6" d="M834.43 846.93h28.68V999h-28.68z" class="cls-4"/><path id="path5" d="M708.7 999V846.93h53.52a57.88 57.88 0 0 1 20.29 3.51 50 50 0 0 1 16.49 9.87 47.08 47.08 0 0 1 0 69.45 50.16 50.16 0 0 1-16.46 9.88 57.87 57.87 0 0 1-20.29 3.5h-24.88V999Zm53.95-83q11.25 0 17-6.37a21.29 21.29 0 0 0 5.73-14.66 23 23 0 0 0-1.38-7.86 18 18 0 0 0-4.24-6.69 21 21 0 0 0-7.12-4.56 26.64 26.64 0 0 0-10-1.7h-25.27V916Z" class="cls-4"/><path id="path4" d="M601 846.93h32.71L690.87 999h-31.65l-12.53-36.32h-58.62L575.54 999h-31.65zm36.32 89.42-13.59-38-5.52-18.48h-1.7L611 898.33l-13.59 38z" class="cls-4"/></g></g></svg>